<svg xmlns="http://www.w3.org/2000/svg" viewBox="0 0 640 640" width="640" height="640" role="img" aria-label="Online Spin Wheel with seven colored name segments and a red pointer">
<rect width="640" height="640" rx="24" fill="#0f1118"/>
<defs>
<radialGradient id="g0" cx="50%" cy="50%" r="50%"><stop offset="0%" stop-color="#e74c3c"/><stop offset="100%" stop-color="#b41909"/></radialGradient>
<radialGradient id="g1" cx="50%" cy="50%" r="50%"><stop offset="0%" stop-color="#e67e22"/><stop offset="100%" stop-color="#b34b00"/></radialGradient>
<radialGradient id="g2" cx="50%" cy="50%" r="50%"><stop offset="0%" stop-color="#f39c12"/><stop offset="100%" stop-color="#c06900"/></radialGradient>
<radialGradient id="g3" cx="50%" cy="50%" r="50%"><stop offset="0%" stop-color="#2ecc71"/><stop offset="100%" stop-color="#00993e"/></radialGradient>
<radialGradient id="g4" cx="50%" cy="50%" r="50%"><stop offset="0%" stop-color="#1abc9c"/><stop offset="100%" stop-color="#008969"/></radialGradient>
<radialGradient id="g5" cx="50%" cy="50%" r="50%"><stop offset="0%" stop-color="#3498db"/><stop offset="100%" stop-color="#0165a8"/></radialGradient>
<radialGradient id="g6" cx="50%" cy="50%" r="50%"><stop offset="0%" stop-color="#9b59b6"/><stop offset="100%" stop-color="#682683"/></radialGradient>
<radialGradient id="hub" cx="50%" cy="35%" r="65%"><stop offset="0%" stop-color="#ffffff"/><stop offset="100%" stop-color="#e2e8f0"/></radialGradient>
</defs>
<path d="M 320 320 L 570.00 320.00 A 250 250 0 0 1 475.87 515.46 Z" fill="url(#g0)" stroke="rgba(255,255,255,0.35)" stroke-width="1.5"/>
<path d="M 320 320 L 475.87 515.46 A 250 250 0 0 1 264.37 563.73 Z" fill="url(#g1)" stroke="rgba(255,255,255,0.35)" stroke-width="1.5"/>
<path d="M 320 320 L 264.37 563.73 A 250 250 0 0 1 94.76 428.47 Z" fill="url(#g2)" stroke="rgba(255,255,255,0.35)" stroke-width="1.5"/>
<path d="M 320 320 L 94.76 428.47 A 250 250 0 0 1 94.76 211.53 Z" fill="url(#g3)" stroke="rgba(255,255,255,0.35)" stroke-width="1.5"/>
<path d="M 320 320 L 94.76 211.53 A 250 250 0 0 1 264.37 76.27 Z" fill="url(#g4)" stroke="rgba(255,255,255,0.35)" stroke-width="1.5"/>
<path d="M 320 320 L 264.37 76.27 A 250 250 0 0 1 475.87 124.54 Z" fill="url(#g5)" stroke="rgba(255,255,255,0.35)" stroke-width="1.5"/>
<path d="M 320 320 L 475.87 124.54 A 250 250 0 0 1 570.00 320.00 Z" fill="url(#g6)" stroke="rgba(255,255,255,0.35)" stroke-width="1.5"/>
<circle cx="320" cy="320" r="250" fill="none" stroke="rgba(15,23,42,0.35)" stroke-width="3"/>
<text x="459.65" y="387.25" transform="rotate(25.7143 459.65 387.25)" fill="#ffffff" font-family="Inter, Segoe UI, system-ui, sans-serif" font-size="22" font-weight="700" text-anchor="middle" dominant-baseline="middle" style="paint-order:stroke" stroke="rgba(0,0,0,0.4)" stroke-width="0.8">Jahangir</text>
<text x="354.49" y="471.11" transform="rotate(77.1429 354.49 471.11)" fill="#ffffff" font-family="Inter, Segoe UI, system-ui, sans-serif" font-size="22" font-weight="700" text-anchor="middle" dominant-baseline="middle" style="paint-order:stroke" stroke="rgba(0,0,0,0.4)" stroke-width="0.8">Mudabber</text>
<text x="223.36" y="441.18" transform="rotate(308.5714 223.36 441.18)" fill="#ffffff" font-family="Inter, Segoe UI, system-ui, sans-serif" font-size="22" font-weight="700" text-anchor="middle" dominant-baseline="middle" style="paint-order:stroke" stroke="rgba(0,0,0,0.4)" stroke-width="0.8">Adam</text>
<text x="165.00" y="320.00" transform="rotate(360.0000 165.00 320.00)" fill="#ffffff" font-family="Inter, Segoe UI, system-ui, sans-serif" font-size="22" font-weight="700" text-anchor="middle" dominant-baseline="middle" style="paint-order:stroke" stroke="rgba(0,0,0,0.4)" stroke-width="0.8">Jacob</text>
<text x="223.36" y="198.82" transform="rotate(411.4286 223.36 198.82)" fill="#ffffff" font-family="Inter, Segoe UI, system-ui, sans-serif" font-size="22" font-weight="700" text-anchor="middle" dominant-baseline="middle" style="paint-order:stroke" stroke="rgba(0,0,0,0.4)" stroke-width="0.8">Abdal</text>
<text x="354.49" y="168.89" transform="rotate(282.8571 354.49 168.89)" fill="#ffffff" font-family="Inter, Segoe UI, system-ui, sans-serif" font-size="22" font-weight="700" text-anchor="middle" dominant-baseline="middle" style="paint-order:stroke" stroke="rgba(0,0,0,0.4)" stroke-width="0.8">Gabriel</text>
<text x="459.65" y="252.75" transform="rotate(334.2857 459.65 252.75)" fill="#ffffff" font-family="Inter, Segoe UI, system-ui, sans-serif" font-size="22" font-weight="700" text-anchor="middle" dominant-baseline="middle" style="paint-order:stroke" stroke="rgba(0,0,0,0.4)" stroke-width="0.8">Hanna</text>
<circle cx="320" cy="320" r="52" fill="url(#hub)" stroke="#cbd5e1" stroke-width="2"/>
<text x="320" y="320" fill="#475569" font-family="Inter, Segoe UI, system-ui, sans-serif" font-size="26" font-weight="800" text-anchor="middle" dominant-baseline="central">SPIN</text>
<polygon points="604,298 604,342 564,320" fill="#ef4444" stroke="#b91c1c" stroke-width="1.5"/>
</svg>
